HIERARCHY
ROOT Hips
{
	OFFSET 0.000000 0.000000 0.000000
	CHANNELS 6 Xposition Yposition Zposition Xrotation Yrotation Zrotation
	JOINT LeftUpLeg_virtual
	{
		OFFSET 0.000000 0.000000 0.000000
		CHANNELS 3 Xrotation Yrotation Zrotation
		JOINT LeftUpLeg
		{
			OFFSET 13.026900 -6.336304 -1.092800
			CHANNELS 3 Xrotation Yrotation Zrotation
			JOINT LeftLeg
			{
				OFFSET 0.524474 -46.096886 9.782700
				CHANNELS 3 Xrotation Yrotation Zrotation
				JOINT LeftFoot
				{
					OFFSET -0.524474 -53.427422 -12.948200
					CHANNELS 3 Xrotation Yrotation Zrotation
					JOINT LeftToeBase
					{
						OFFSET 0.192200 -14.009700 16.364100
						CHANNELS 3 Xrotation Yrotation Zrotation
						JOINT LeftToe_End
						{
							OFFSET -1.784700 -0.561700 9.474800
							CHANNELS 3 Xrotation Yrotation Zrotation
							End Site
							{
								OFFSET 0 0 0
							}
						}
					}
				}
			}
		}
	}
	JOINT RightUpLeg_virtual
	{
		OFFSET 0.000000 0.000000 0.000000
		CHANNELS 3 Xrotation Yrotation Zrotation
		JOINT RightUpLeg
		{
			OFFSET -12.883000 -6.336304 -1.092800
			CHANNELS 3 Xrotation Yrotation Zrotation
			JOINT RightLeg
			{
				OFFSET -0.524587 -46.096825 9.782800
				CHANNELS 3 Xrotation Yrotation Zrotation
				JOINT RightFoot
				{
					OFFSET 0.524587 -53.427383 -12.948300
					CHANNELS 3 Xrotation Yrotation Zrotation
					JOINT RightToeBase
					{
						OFFSET -0.192200 -14.009700 16.364100
						CHANNELS 3 Xrotation Yrotation Zrotation
						JOINT RightToe_End
						{
							OFFSET 1.784700 -0.561700 9.474800
							CHANNELS 3 Xrotation Yrotation Zrotation
							End Site
							{
								OFFSET 0 0 0
							}
						}
					}
				}
			}
		}
	}
	JOINT Spine_virtual
	{
		OFFSET 0.000000 0.000000 0.000000
		CHANNELS 3 Xrotation Yrotation Zrotation
		JOINT Spine
		{
			OFFSET 0.072000 7.257294 -0.789700
			CHANNELS 3 Xrotation Yrotation Zrotation
			JOINT Spine1
			{
				OFFSET 0.000000 12.508769 -0.658067
				CHANNELS 3 Xrotation Yrotation Zrotation
				JOINT Spine1_split
				{
					OFFSET 0.000000 12.508769 -0.658067
					CHANNELS 3 Xrotation Yrotation Zrotation
					JOINT Spine2
					{
						OFFSET 0.000000 12.508769 -0.658067
						CHANNELS 3 Xrotation Yrotation Zrotation
						JOINT Neck_virtual
						{
							OFFSET 0.000000 0.000000 0.000000
							CHANNELS 3 Xrotation Yrotation Zrotation
							JOINT Neck
							{
								OFFSET 0.000000 14.033295 7.520400
								CHANNELS 3 Xrotation Yrotation Zrotation
								JOINT Head
								{
									OFFSET 0.000000 8.198502 5.703100
									CHANNELS 3 Xrotation Yrotation Zrotation
									JOINT HeadTop_End
									{
										OFFSET 0.000000 17.760803 13.332701
										CHANNELS 3 Xrotation Yrotation Zrotation
										End Site
										{
											OFFSET 0 0 0
										}
									}
								}
							}
						}
						JOINT LeftShoulder_virtual
						{
							OFFSET 0.000000 0.000000 0.000000
							CHANNELS 3 Xrotation Yrotation Zrotation
							JOINT LeftShoulder
							{
								OFFSET 6.292450 5.785301 -0.669000
								CHANNELS 3 Xrotation Yrotation Zrotation
								JOINT LeftShoulder_split
								{
									OFFSET 6.292450 5.785301 -0.669000
									CHANNELS 3 Xrotation Yrotation Zrotation
									JOINT LeftArm
									{
										OFFSET 13.907140 -6.093903 1.965100
										CHANNELS 3 Xrotation Yrotation Zrotation
										JOINT LeftForeArm
										{
											OFFSET 34.140198 0.000000 0.000000
											CHANNELS 3 Xrotation Yrotation Zrotation
											JOINT LeftHand
											{
												OFFSET 40.960209 0.000000 0.000000
												CHANNELS 3 Xrotation Yrotation Zrotation
												End Site
												{
													OFFSET 0 0 0
												}
											}
										}
									}
								}
							}
						}
						JOINT RightShoulder_virtual
						{
							OFFSET 0.000000 0.000000 0.000000
							CHANNELS 3 Xrotation Yrotation Zrotation
							JOINT RightShoulder
							{
								OFFSET -6.292450 5.785301 -0.669000
								CHANNELS 3 Xrotation Yrotation Zrotation
								JOINT RightShoulder_split
								{
									OFFSET -6.292450 5.785301 -0.669000
									CHANNELS 3 Xrotation Yrotation Zrotation
									JOINT RightArm
									{
										OFFSET -13.907140 -6.093903 1.965100
										CHANNELS 3 Xrotation Yrotation Zrotation
										JOINT RightForeArm
										{
											OFFSET -34.140198 0.000000 0.000000
											CHANNELS 3 Xrotation Yrotation Zrotation
											JOINT RightHand
											{
												OFFSET -40.960209 0.000000 0.000000
												CHANNELS 3 Xrotation Yrotation Zrotation
												End Site
												{
													OFFSET 0 0 0
												}
											}
										}
									}
								}
							}
						}
					}
				}
			}
		}
	}
}
MOTION
Frames: 8
Frame Time: 0.03333333
-4.362311 99.319145 97.390472 0.000000 0.000000 0.000000 31.584752 15.076792 -4.937624 -10.879965 8.428863 3.270631 27.192557 18.711778 0.619762 -20.435441 1.177183 -27.313459 -21.739703 -9.088322 5.726554 0.000000 0.000000 0.000000 31.584752 15.076792 -4.937624 -72.813600 -5.805310 -7.173036 61.320332 -28.554658 -1.163973 -7.828017 -0.625778 1.521606 -7.438702 8.536459 6.470201 0.000000 0.000000 0.000000 31.584752 15.076792 -4.937624 4.851868 -1.472651 0.088004 9.757388 0.096157 4.188237 0.000000 0.000000 0.000000 0.000000 0.000000 0.000000 9.757391 0.096154 4.188240 -7.024165 0.658826 -0.591048 -4.707666 0.245714 2.478138 0.000000 0.000000 0.000000 9.757391 0.096154 4.188240 3.226810 -20.189783 5.440781 0.000000 0.000000 0.000000 -45.210897 -21.558423 -43.409855 106.505025 -61.972984 119.184506 0.000000 0.000000 0.000000 9.757391 0.096154 4.188240 1.498008 10.178248 -3.380647 0.000000 0.000000 0.000000 -39.360481 5.475560 40.474233 111.651067 50.909942 -132.294084 0.000000 0.000000 0.000000 
-4.454655 98.875458 97.863205 0.000000 0.000000 0.000000 31.971047 15.075389 -5.004937 -11.318780 8.393849 3.482628 27.845950 18.667694 0.627760 -20.351911 1.033613 -27.806798 -22.328686 -9.233664 5.803416 0.000000 0.000000 0.000000 31.971047 15.075389 -5.004937 -73.557347 -5.934006 -7.228128 62.288962 -28.418897 -1.147025 -7.971859 -0.613309 1.353852 -8.095337 8.380788 6.746003 0.000000 0.000000 0.000000 31.971047 15.075389 -5.004937 4.693407 -1.487583 0.076533 9.441412 0.085016 4.172061 0.000000 0.000000 0.000000 0.000000 0.000000 0.000000 9.441405 0.085017 4.172058 -7.147122 0.629940 -0.577765 -4.884827 0.126167 2.445931 0.000000 0.000000 0.000000 9.441405 0.085017 4.172058 3.345513 -20.374547 5.851158 0.000000 0.000000 0.000000 -45.404147 -21.632029 -43.071747 105.129514 -62.566227 117.849751 0.000000 0.000000 0.000000 9.441405 0.085017 4.172058 1.512606 10.066767 -3.702970 0.000000 0.000000 0.000000 -39.856869 5.966727 40.669774 110.736614 51.476745 -131.206049 0.000000 0.000000 0.000000 
-4.533698 98.455246 98.307175 0.000000 0.000000 0.000000 32.397875 15.103613 -5.101175 -11.815117 8.353814 3.699843 28.483680 18.630145 0.635635 -20.234941 0.884507 -28.293285 -22.906212 -9.423593 5.867534 0.000000 0.000000 0.000000 32.397875 15.103613 -5.101175 -74.289051 -6.085097 -7.312307 63.168103 -28.325674 -1.133275 -8.149760 -0.611884 1.231408 -8.650458 8.281831 6.979079 0.000000 0.000000 0.000000 32.397875 15.103613 -5.101175 4.530362 -1.499398 0.081653 9.115787 0.078892 4.180705 0.000000 0.000000 0.000000 0.000000 0.000000 0.000000 9.115794 0.078888 4.180705 -7.260783 0.622990 -0.571326 -5.077534 0.011015 2.406298 0.000000 0.000000 0.000000 9.115794 0.078888 4.180705 3.462211 -20.556778 6.238190 0.000000 0.000000 0.000000 -45.726156 -21.783025 -42.867282 103.432403 -63.200362 116.209057 0.000000 0.000000 0.000000 9.115794 0.078888 4.180705 1.527256 9.940852 -4.054027 0.000000 0.000000 0.000000 -40.408390 6.474595 40.823634 109.704040 52.094963 -130.008143 0.000000 0.000000 0.000000 
-4.599319 98.034447 98.748428 0.000000 0.000000 0.000000 32.834563 15.129243 -5.195940 -12.315523 8.312478 3.905617 29.112739 18.592193 0.640933 -20.098581 0.734151 -28.770755 -23.497348 -9.625231 5.918328 0.000000 0.000000 0.000000 32.834563 15.129243 -5.195940 -75.011624 -6.245318 -7.420667 64.024185 -28.159034 -1.114987 -8.347305 -0.616402 1.136263 -9.157095 8.148802 7.163152 0.000000 0.000000 0.000000 32.834563 15.129243 -5.195940 4.365186 -1.513494 0.083996 8.786295 0.069151 4.187630 0.000000 0.000000 0.000000 0.000000 0.000000 0.000000 8.786292 0.069156 4.187627 -7.375611 0.638789 -0.570446 -5.283603 -0.097786 2.366242 0.000000 0.000000 0.000000 8.786292 0.069156 4.187627 3.580661 -20.737422 6.622317 0.000000 0.000000 0.000000 -46.132648 -21.954656 -42.797778 101.473887 -63.830720 114.352960 0.000000 0.000000 0.000000 8.786292 0.069156 4.187627 1.543042 9.816508 -4.426534 0.000000 0.000000 0.000000 -40.990192 6.984707 41.013285 108.542320 52.751897 -128.683564 0.000000 0.000000 0.000000 
-4.661118 97.593010 99.204689 0.000000 0.000000 0.000000 33.258677 15.107924 -5.277237 -12.781876 8.271457 4.103193 29.738825 18.548374 0.643636 -19.973753 0.590590 -29.236553 -24.110365 -9.790104 5.963790 0.000000 0.000000 0.000000 33.258677 15.107924 -5.277237 -75.728329 -6.407955 -7.513356 64.899009 -27.880235 -1.089964 -8.546611 -0.620632 1.044906 -9.661560 7.943869 7.305844 0.000000 0.000000 0.000000 33.258677 15.107924 -5.277237 4.199720 -1.532808 0.069321 8.456733 0.049885 4.168280 0.000000 0.000000 0.000000 0.000000 0.000000 0.000000 8.456740 0.049891 4.168278 -7.475468 0.675856 -0.577670 -5.503575 -0.207915 2.338962 0.000000 0.000000 0.000000 8.456740 0.049891 4.168278 3.700560 -20.916836 7.003160 0.000000 0.000000 0.000000 -46.556424 -22.125459 -42.724944 99.354582 -64.436490 112.357274 0.000000 0.000000 0.000000 8.456740 0.049891 4.168278 1.562810 9.722050 -4.810987 0.000000 0.000000 0.000000 -41.579268 7.494218 41.263987 107.227652 53.443754 -127.192561 0.000000 0.000000 0.000000 
-4.727435 97.117531 99.684311 0.000000 0.000000 0.000000 33.675445 15.032609 -5.361983 -13.217127 8.227956 4.315109 30.369302 18.492455 0.644942 -19.893558 0.465691 -29.696792 -24.722216 -9.902812 6.008580 0.000000 0.000000 0.000000 33.675445 15.032609 -5.361983 -76.455369 -6.585251 -7.566617 65.814187 -27.540568 -1.061928 -8.746240 -0.620686 0.933668 -10.193741 7.692291 7.441795 0.000000 0.000000 0.000000 33.675445 15.032609 -5.361983 4.030335 -1.556160 0.039644 8.119905 0.022532 4.122999 0.000000 0.000000 0.000000 0.000000 0.000000 0.000000 8.119899 0.022529 4.122999 -7.532401 0.728856 -0.600432 -5.741317 -0.331652 2.317627 0.000000 0.000000 0.000000 8.119899 0.022529 4.122999 3.816731 -21.095067 7.355333 0.000000 0.000000 0.000000 -46.951963 -22.334560 -42.484685 97.126472 -65.036474 110.196223 0.000000 0.000000 0.000000 8.119899 0.022529 4.122999 1.589188 9.675216 -5.205954 0.000000 0.000000 0.000000 -42.155426 7.989158 41.531109 105.751279 54.166269 -125.522594 0.000000 0.000000 0.000000 
-4.796185 96.604591 100.191872 0.000000 0.000000 0.000000 34.114510 14.941853 -5.469217 -13.653397 8.179001 4.551609 31.005616 18.421519 0.644992 -19.858428 0.363667 -30.157519 -25.315936 -9.997393 6.037857 0.000000 0.000000 0.000000 34.114510 14.941853 -5.469217 -77.224837 -6.788511 -7.605915 66.784900 -27.208897 -1.034972 -8.949938 -0.613367 0.776690 -10.781834 7.427508 7.622719 0.000000 0.000000 0.000000 34.114510 14.941853 -5.469217 3.848878 -1.581422 0.004975 7.759068 -0.007660 4.068835 0.000000 0.000000 0.000000 0.000000 0.000000 0.000000 7.759090 -0.007656 4.068835 -7.533812 0.785146 -0.637428 -6.001976 -0.471336 2.273180 0.000000 0.000000 0.000000 7.759090 -0.007656 4.068835 3.925303 -21.272424 7.662586 0.000000 0.000000 0.000000 -47.305576 -22.623127 -42.040142 94.800177 -65.650918 107.819823 0.000000 0.000000 0.000000 7.759090 -0.007656 4.068835 1.621057 9.666506 -5.608419 0.000000 0.000000 0.000000 -42.699740 8.436522 41.772129 104.152933 54.894606 -123.735202 0.000000 0.000000 0.000000 
-4.857965 96.059822 100.735191 0.000000 0.000000 0.000000 34.604081 14.879967 -5.595241 -14.114765 8.125039 4.797577 31.636924 18.335400 0.641243 -19.821136 0.275427 -30.621418 -25.910548 -10.123712 6.023307 0.000000 0.000000 0.000000 34.604081 14.879967 -5.595241 -78.070196 -7.004182 -7.682571 67.828525 -26.894683 -1.008541 -9.124071 -0.595915 0.565844 -11.474293 7.140649 7.872897 0.000000 0.000000 0.000000 34.604081 14.879967 -5.595241 3.649292 -1.608642 -0.030844 7.362030 -0.037191 4.016986 0.000000 0.000000 0.000000 0.000000 0.000000 0.000000 7.362047 -0.037184 4.016985 -7.484386 0.826240 -0.670602 -6.283518 -0.615410 2.182550 0.000000 0.000000 0.000000 7.362047 -0.037184 4.016985 4.029318 -21.449224 7.939961 0.000000 0.000000 0.000000 -47.612344 -22.969947 -41.501715 92.443175 -66.256373 105.312884 0.000000 0.000000 0.000000 7.362047 -0.037184 4.016985 1.654011 9.672771 -5.992072 0.000000 0.000000 0.000000 -43.199174 8.802926 42.000394 102.529568 55.577427 -121.967535 0.000000 0.000000 0.000000 
